<svg width="671" height="467" viewBox="0 0 671 467" fill="none" xmlns="http://www.w3.org/2000/svg">
<path d="M133.692 467C207.529 467 267.385 462.453 267.385 456.843C267.385 451.233 207.529 446.686 133.692 446.686C59.8561 446.686 0 451.233 0 456.843C0 462.453 59.8561 467 133.692 467Z" fill="#E6E6E6"/>
<path d="M102.192 103.619C125.458 93.7199 154.437 99.9919 182.738 104.345C183.001 99.0734 186.194 92.6577 182.85 88.9799C178.787 84.5118 179.161 79.8171 181.606 75.0954C187.857 63.0211 178.901 50.1734 169.858 39.4907C167.819 37.0883 165.243 35.2007 162.339 33.9812C159.434 32.7618 156.283 32.2448 153.142 32.4723L136.39 33.6693C132.313 33.9605 128.423 35.4901 125.24 38.0535C122.056 40.6168 119.731 44.0916 118.576 48.0129C114.576 53.4547 112.435 58.8815 113.783 64.28C107.792 68.3757 106.785 73.3196 109.477 78.893C111.76 82.4023 111.736 85.8182 109.373 89.1395C106.271 93.374 103.894 98.0956 102.342 103.111L102.192 103.619Z" fill="#2F2E41"/>
<path d="M655.1 403.714H180.9C176.683 403.714 172.639 402.038 169.657 399.055C166.675 396.073 165 392.027 165 387.809C336.897 367.824 505.564 367.824 671 387.809C671 392.027 669.325 396.073 666.343 399.055C663.361 402.038 659.317 403.714 655.1 403.714Z" fill="#2F2E41"/>
<path d="M671 388.744L165 387.809L223.644 289.102L223.924 288.634V71.0967C223.924 68.4563 224.444 65.8416 225.454 63.4021C226.464 60.9627 227.944 58.7461 229.811 56.879C231.677 55.0119 233.893 53.5309 236.332 52.5206C238.771 51.5102 241.384 50.9903 244.024 50.9905H589.17C591.81 50.9903 594.424 51.5102 596.862 52.5206C599.301 53.5309 601.517 55.0119 603.383 56.879C605.25 58.7461 606.73 60.9627 607.74 63.4021C608.75 65.8416 609.27 68.4563 609.27 71.0967V290.131L671 388.744Z" fill="#3F3D56"/>
<path d="M243.566 65.0246C241.83 65.0266 240.166 65.7172 238.938 66.945C237.711 68.1728 237.02 69.8375 237.018 71.5739V269.922C237.021 271.659 237.711 273.323 238.938 274.551C240.166 275.779 241.83 276.47 243.566 276.472H592.434C594.17 276.469 595.834 275.779 597.062 274.551C598.289 273.323 598.979 271.659 598.982 269.922V71.5739C598.98 69.8375 598.289 68.1729 597.062 66.9451C595.834 65.7173 594.17 65.0267 592.434 65.0246H243.566Z" fill="white"/>
<path d="M245.027 302.669C244.491 302.669 243.966 302.824 243.514 303.113C243.063 303.403 242.703 303.815 242.478 304.302L224.408 343.598C224.212 344.025 224.126 344.496 224.158 344.965C224.191 345.435 224.341 345.889 224.595 346.285C224.848 346.681 225.198 347.007 225.611 347.233C226.024 347.459 226.487 347.578 226.957 347.578H606.958C607.436 347.578 607.907 347.455 608.324 347.222C608.742 346.989 609.093 346.653 609.345 346.246C609.596 345.839 609.739 345.375 609.761 344.897C609.782 344.419 609.681 343.943 609.467 343.515L589.826 304.22C589.594 303.753 589.236 303.36 588.793 303.086C588.349 302.812 587.838 302.667 587.317 302.669H245.027Z" fill="#2F2E41"/>
<path d="M416.597 61.75C418.922 61.75 420.806 59.865 420.806 57.5398C420.806 55.2145 418.922 53.3295 416.597 53.3295C414.273 53.3295 412.388 55.2145 412.388 57.5398C412.388 59.865 414.273 61.75 416.597 61.75Z" fill="white"/>
<path d="M379.246 355.062C378.629 355.063 378.03 355.267 377.54 355.642C377.051 356.018 376.698 356.544 376.537 357.139L372.004 373.98C371.892 374.396 371.877 374.832 371.961 375.255C372.045 375.678 372.224 376.075 372.486 376.417C372.748 376.759 373.085 377.036 373.472 377.227C373.858 377.418 374.283 377.517 374.713 377.517H460.914C461.362 377.517 461.803 377.41 462.2 377.205C462.598 377 462.941 376.703 463.2 376.338C463.459 375.974 463.628 375.552 463.691 375.109C463.755 374.666 463.712 374.215 463.565 373.792L457.738 356.951C457.547 356.4 457.189 355.922 456.713 355.583C456.238 355.245 455.67 355.063 455.086 355.062H379.246Z" fill="#2F2E41"/>
<path d="M609.27 285.36V289.102H223.644L223.934 288.635V285.36H609.27Z" fill="#2F2E41"/>
<path d="M598.514 130.985C634.673 130.985 663.985 101.663 663.985 65.4924C663.985 29.322 634.673 0 598.514 0C562.355 0 533.043 29.322 533.043 65.4924C533.043 101.663 562.355 130.985 598.514 130.985Z" fill="#7984EE"/>
<path d="M625.638 94.0284H571.39C570.398 94.0275 569.447 93.6329 568.746 92.9312C568.044 92.2296 567.65 91.2783 567.649 90.286V57.5398C567.65 56.5476 568.044 55.5963 568.746 54.8947C569.447 54.193 570.398 53.7984 571.39 53.7974H625.638C626.63 53.7984 627.581 54.193 628.282 54.8947C628.983 55.5963 629.378 56.5476 629.379 57.5398V90.286C629.378 91.2782 628.983 92.2296 628.282 92.9312C627.581 93.6329 626.63 94.0275 625.638 94.0284ZM571.39 57.5398V90.286H625.64L625.638 57.5398L571.39 57.5398Z" fill="white"/>
<path d="M615.349 57.5398H581.678V42.5701C581.678 31.7275 588.759 23.8579 598.514 23.8579C608.269 23.8579 615.349 31.7275 615.349 42.5701L615.349 57.5398ZM585.42 53.7973H611.608V42.5701C611.608 33.7562 606.224 27.6004 598.514 27.6004C590.804 27.6004 585.42 33.7563 585.42 42.5701L585.42 53.7973Z" fill="white"/>
<path d="M598.514 76.7197C600.58 76.7197 602.255 75.0441 602.255 72.9773C602.255 70.9104 600.58 69.2348 598.514 69.2348C596.448 69.2348 594.773 70.9104 594.773 72.9773C594.773 75.0441 596.448 76.7197 598.514 76.7197Z" fill="white"/>
<path d="M552.809 209.194H283.191C281.867 209.192 280.598 208.666 279.662 207.729C278.726 206.793 278.199 205.523 278.198 204.199V137.297C278.199 135.973 278.726 134.703 279.662 133.767C280.598 132.831 281.867 132.304 283.191 132.302H552.809C554.133 132.304 555.402 132.831 556.338 133.767C557.274 134.703 557.801 135.973 557.802 137.297V204.199C557.801 205.523 557.274 206.793 556.338 207.729C555.402 208.666 554.133 209.192 552.809 209.194ZM283.191 134.3C282.397 134.301 281.635 134.617 281.073 135.179C280.512 135.741 280.196 136.502 280.195 137.297V204.199C280.196 204.994 280.512 205.756 281.073 206.317C281.635 206.879 282.397 207.195 283.191 207.196H552.809C553.603 207.195 554.365 206.879 554.927 206.317C555.488 205.756 555.804 204.994 555.805 204.199V137.297C555.804 136.502 555.488 135.741 554.927 135.179C554.365 134.617 553.603 134.301 552.809 134.3L283.191 134.3Z" fill="#E6E6E6"/>
<path d="M325.084 188.526C336.317 188.526 345.423 179.417 345.423 168.181C345.423 156.945 336.317 147.836 325.084 147.836C313.851 147.836 304.745 156.945 304.745 168.181C304.745 179.417 313.851 188.526 325.084 188.526Z" fill="#E6E6E6"/>
<path d="M372.056 154.618C371.611 154.617 371.169 154.704 370.758 154.874C370.346 155.044 369.971 155.294 369.656 155.609C369.341 155.924 369.091 156.298 368.92 156.71C368.749 157.121 368.661 157.563 368.661 158.009C368.661 158.454 368.749 158.896 368.92 159.307C369.091 159.719 369.341 160.093 369.656 160.408C369.971 160.723 370.346 160.973 370.758 161.143C371.169 161.313 371.611 161.4 372.056 161.399H531.859C532.758 161.399 533.62 161.042 534.256 160.406C534.892 159.77 535.249 158.908 535.249 158.009C535.249 157.109 534.892 156.247 534.256 155.611C533.62 154.975 532.758 154.618 531.859 154.618H372.056Z" fill="#E6E6E6"/>
<path d="M372.056 174.963C371.157 174.963 370.295 175.32 369.659 175.956C369.024 176.592 368.667 177.454 368.667 178.354C368.667 179.253 369.024 180.115 369.659 180.751C370.295 181.387 371.157 181.744 372.056 181.744H440.82C441.719 181.744 442.581 181.387 443.217 180.751C443.853 180.115 444.21 179.253 444.21 178.354C444.21 177.454 443.853 176.592 443.217 175.956C442.581 175.32 441.719 174.963 440.82 174.963H372.056Z" fill="#E6E6E6"/>
<path d="M222.98 176.334L173.139 202.841L172.508 180.752C188.776 178.036 204.253 173.306 218.564 165.606L223.777 152.723C224.345 151.319 225.268 150.087 226.455 149.148C227.643 148.209 229.055 147.595 230.551 147.367C232.048 147.138 233.578 147.303 234.992 147.844C236.405 148.386 237.654 149.286 238.615 150.456C240.021 152.169 240.724 154.351 240.581 156.562C240.438 158.773 239.461 160.848 237.846 162.365L222.98 176.334Z" fill="#FFB8B8"/>
<path d="M101.198 329.372C100.835 328.038 100.758 326.642 100.972 325.277C101.186 323.911 101.687 322.605 102.442 321.447L113.39 304.639C115.98 300.663 119.954 297.792 124.54 296.581C129.127 295.371 133.999 295.908 138.212 298.088C133.611 305.923 134.252 312.796 139.801 318.769C131.187 322.976 123.225 328.406 116.163 334.89C114.874 335.769 113.393 336.327 111.845 336.518C110.296 336.709 108.724 336.527 107.26 335.987C105.796 335.447 104.482 334.565 103.428 333.415C102.373 332.264 101.609 330.878 101.198 329.372Z" fill="#2F2E41"/>
<path d="M225.25 307.395C223.593 310.157 221.255 312.447 218.459 314.045C215.662 315.643 212.503 316.495 209.283 316.519L136.547 317.07L133.392 298.768L165.568 289.302L138.44 268.475L168.092 233.765L221.95 283.978C225.097 286.913 227.143 290.84 227.743 295.102C228.344 299.365 227.464 303.704 225.25 307.395Z" fill="#2F2E41"/>
<path d="M125.191 432.562H108.156C92.8621 327.692 77.294 222.528 123.298 183.277L177.555 192.112L170.615 238.182L140.332 272.893L125.191 432.562Z" fill="#2F2E41"/>
<path d="M140.165 456.318C138.831 456.682 137.436 456.759 136.07 456.545C134.705 456.331 133.4 455.83 132.242 455.075L113.746 452.588C109.772 449.998 106.901 446.023 105.691 441.435C104.48 436.847 105.017 431.973 107.196 427.759C115.029 432.361 121.9 431.719 127.871 426.168C132.09 434.689 139.041 434.169 145.679 441.348C146.558 442.638 147.117 444.119 147.308 445.668C147.498 447.217 147.317 448.79 146.777 450.254C146.238 451.719 145.356 453.033 144.206 454.088C143.056 455.143 141.67 455.908 140.165 456.318Z" fill="#2F2E41"/>
<path d="M165.568 113.224L134.023 105.651C139.262 94.9234 139.694 82.9869 137.178 70.3092L158.628 69.6781C159.3 85.4431 161.334 100.172 165.568 113.224Z" fill="#FFB8B8"/>
<path d="M174.238 211.114C151.274 226.767 135.049 211.65 122.667 188.325C124.388 174.053 121.602 156.973 116.442 138.415C114.148 130.229 115.004 121.48 118.843 113.896C122.682 106.311 129.224 100.442 137.178 97.4466L164.306 108.807C187.342 127.589 191.876 147.934 183.233 169.392L174.238 211.114Z" fill="#7984EE"/>
<path d="M108.156 129.002L82.9204 142.255L127.714 168.761L133.947 184.14C134.363 185.167 134.566 186.267 134.543 187.375C134.52 188.482 134.271 189.573 133.813 190.581C133.355 191.59 132.696 192.494 131.877 193.239C131.058 193.984 130.095 194.555 129.048 194.916C127.859 195.327 126.59 195.456 125.342 195.294C124.093 195.132 122.9 194.683 121.854 193.983C120.808 193.282 119.938 192.349 119.313 191.256C118.688 190.164 118.324 188.941 118.25 187.684L117.62 176.966L60.6875 158.172C58.7693 157.539 57.0203 156.477 55.573 155.067C54.1256 153.658 53.0179 151.938 52.3337 150.036C51.3364 147.265 51.2856 144.241 52.1893 141.438C53.0931 138.635 54.9003 136.211 57.3282 134.545L103.109 103.127L108.156 129.002Z" fill="#FFB8B8"/>
<path d="M133.392 131.526C122.867 126.912 113.297 131.924 101.217 135.944L99.3239 102.495C111.319 96.1001 122.756 94.3758 133.392 99.34L133.392 131.526Z" fill="#7984EE"/>
<path d="M145.983 86.2463C157.106 86.2463 166.123 77.2263 166.123 66.0995C166.123 54.9728 157.106 45.9528 145.983 45.9528C134.86 45.9528 125.842 54.9728 125.842 66.0995C125.842 77.2263 134.86 86.2463 145.983 86.2463Z" fill="#FFB8B8"/>
<path d="M170.077 63.5575C150.136 65.5112 134.942 62.2489 125.231 52.9602V45.4798H168.385L170.077 63.5575Z" fill="#2F2E41"/>
</svg>
