<svg width="81" height="81" viewBox="0 0 81 81" fill="none" xmlns="http://www.w3.org/2000/svg">
<path d="M0 0.736364C0 0.329681 0.329681 0 0.736364 0H6.62727C7.03396 0 7.36364 0.329681 7.36364 0.736364V6.62727C7.36364 7.03396 7.03396 7.36364 6.62727 7.36364H0.736364C0.329681 7.36364 0 7.03396 0 6.62727V0.736364Z" fill="white" fill-opacity="0.3"/>
<path d="M0 15.4636C0 15.057 0.329681 14.7273 0.736364 14.7273H6.62727C7.03396 14.7273 7.36364 15.057 7.36364 15.4636V21.3545C7.36364 21.7612 7.03396 22.0909 6.62727 22.0909H0.736364C0.329681 22.0909 0 21.7612 0 21.3545V15.4636Z" fill="white" fill-opacity="0.3"/>
<path d="M0 30.1909C0 29.7842 0.329681 29.4545 0.736364 29.4545H6.62727C7.03396 29.4545 7.36364 29.7842 7.36364 30.1909V36.0818C7.36364 36.4885 7.03396 36.8182 6.62727 36.8182H0.736364C0.329681 36.8182 0 36.4885 0 36.0818V30.1909Z" fill="white" fill-opacity="0.3"/>
<path d="M0 44.9182C0 44.5115 0.329681 44.1818 0.736364 44.1818H6.62727C7.03396 44.1818 7.36364 44.5115 7.36364 44.9182V50.8091C7.36364 51.2158 7.03396 51.5455 6.62727 51.5455H0.736364C0.329681 51.5455 0 51.2158 0 50.8091V44.9182Z" fill="white" fill-opacity="0.3"/>
<path d="M0 59.6455C0 59.2388 0.329681 58.9091 0.736364 58.9091H6.62727C7.03396 58.9091 7.36364 59.2388 7.36364 59.6455V65.5364C7.36364 65.943 7.03396 66.2727 6.62727 66.2727H0.736364C0.329681 66.2727 0 65.943 0 65.5364V59.6455Z" fill="white" fill-opacity="0.3"/>
<path d="M0 74.3727C0 73.966 0.329681 73.6364 0.736364 73.6364H6.62727C7.03396 73.6364 7.36364 73.966 7.36364 74.3727V80.2636C7.36364 80.6703 7.03396 81 6.62727 81H0.736364C0.329681 81 0 80.6703 0 80.2636V74.3727Z" fill="white" fill-opacity="0.3"/>
<path d="M14.7273 0.736364C14.7273 0.329681 15.057 0 15.4636 0H21.3545C21.7612 0 22.0909 0.329681 22.0909 0.736364V6.62727C22.0909 7.03396 21.7612 7.36364 21.3545 7.36364H15.4636C15.057 7.36364 14.7273 7.03396 14.7273 6.62727V0.736364Z" fill="white" fill-opacity="0.3"/>
<path d="M14.7273 15.4636C14.7273 15.057 15.057 14.7273 15.4636 14.7273H21.3545C21.7612 14.7273 22.0909 15.057 22.0909 15.4636V21.3545C22.0909 21.7612 21.7612 22.0909 21.3545 22.0909H15.4636C15.057 22.0909 14.7273 21.7612 14.7273 21.3545V15.4636Z" fill="white" fill-opacity="0.3"/>
<path d="M14.7273 30.1909C14.7273 29.7842 15.057 29.4545 15.4636 29.4545H21.3545C21.7612 29.4545 22.0909 29.7842 22.0909 30.1909V36.0818C22.0909 36.4885 21.7612 36.8182 21.3545 36.8182H15.4636C15.057 36.8182 14.7273 36.4885 14.7273 36.0818V30.1909Z" fill="white" fill-opacity="0.3"/>
<path d="M14.7273 44.9182C14.7273 44.5115 15.057 44.1818 15.4636 44.1818H21.3545C21.7612 44.1818 22.0909 44.5115 22.0909 44.9182V50.8091C22.0909 51.2158 21.7612 51.5455 21.3545 51.5455H15.4636C15.057 51.5455 14.7273 51.2158 14.7273 50.8091V44.9182Z" fill="white" fill-opacity="0.3"/>
<path d="M14.7273 59.6455C14.7273 59.2388 15.057 58.9091 15.4636 58.9091H21.3545C21.7612 58.9091 22.0909 59.2388 22.0909 59.6455V65.5364C22.0909 65.943 21.7612 66.2727 21.3545 66.2727H15.4636C15.057 66.2727 14.7273 65.943 14.7273 65.5364V59.6455Z" fill="white" fill-opacity="0.3"/>
<path d="M14.7273 74.3727C14.7273 73.966 15.057 73.6364 15.4636 73.6364H21.3545C21.7612 73.6364 22.0909 73.966 22.0909 74.3727V80.2636C22.0909 80.6703 21.7612 81 21.3545 81H15.4636C15.057 81 14.7273 80.6703 14.7273 80.2636V74.3727Z" fill="white" fill-opacity="0.3"/>
<path d="M29.4545 0.736364C29.4545 0.329681 29.7842 0 30.1909 0H36.0818C36.4885 0 36.8182 0.329681 36.8182 0.736364V6.62727C36.8182 7.03396 36.4885 7.36364 36.0818 7.36364H30.1909C29.7842 7.36364 29.4545 7.03396 29.4545 6.62727V0.736364Z" fill="white" fill-opacity="0.3"/>
<path d="M29.4545 15.4636C29.4545 15.057 29.7842 14.7273 30.1909 14.7273H36.0818C36.4885 14.7273 36.8182 15.057 36.8182 15.4636V21.3545C36.8182 21.7612 36.4885 22.0909 36.0818 22.0909H30.1909C29.7842 22.0909 29.4545 21.7612 29.4545 21.3545V15.4636Z" fill="white" fill-opacity="0.3"/>
<path d="M29.4545 30.1909C29.4545 29.7842 29.7842 29.4545 30.1909 29.4545H36.0818C36.4885 29.4545 36.8182 29.7842 36.8182 30.1909V36.0818C36.8182 36.4885 36.4885 36.8182 36.0818 36.8182H30.1909C29.7842 36.8182 29.4545 36.4885 29.4545 36.0818V30.1909Z" fill="white" fill-opacity="0.3"/>
<path d="M29.4545 44.9182C29.4545 44.5115 29.7842 44.1818 30.1909 44.1818H36.0818C36.4885 44.1818 36.8182 44.5115 36.8182 44.9182V50.8091C36.8182 51.2158 36.4885 51.5455 36.0818 51.5455H30.1909C29.7842 51.5455 29.4545 51.2158 29.4545 50.8091V44.9182Z" fill="white" fill-opacity="0.3"/>
<path d="M29.4545 59.6455C29.4545 59.2388 29.7842 58.9091 30.1909 58.9091H36.0818C36.4885 58.9091 36.8182 59.2388 36.8182 59.6455V65.5364C36.8182 65.943 36.4885 66.2727 36.0818 66.2727H30.1909C29.7842 66.2727 29.4545 65.943 29.4545 65.5364V59.6455Z" fill="white" fill-opacity="0.3"/>
<path d="M29.4545 74.3727C29.4545 73.966 29.7842 73.6364 30.1909 73.6364H36.0818C36.4885 73.6364 36.8182 73.966 36.8182 74.3727V80.2636C36.8182 80.6703 36.4885 81 36.0818 81H30.1909C29.7842 81 29.4545 80.6703 29.4545 80.2636V74.3727Z" fill="white" fill-opacity="0.3"/>
<path d="M44.1818 0.736364C44.1818 0.329681 44.5115 0 44.9182 0H50.8091C51.2158 0 51.5455 0.329681 51.5455 0.736364V6.62727C51.5455 7.03396 51.2158 7.36364 50.8091 7.36364H44.9182C44.5115 7.36364 44.1818 7.03396 44.1818 6.62727V0.736364Z" fill="white" fill-opacity="0.3"/>
<path d="M44.1818 15.4636C44.1818 15.057 44.5115 14.7273 44.9182 14.7273H50.8091C51.2158 14.7273 51.5455 15.057 51.5455 15.4636V21.3545C51.5455 21.7612 51.2158 22.0909 50.8091 22.0909H44.9182C44.5115 22.0909 44.1818 21.7612 44.1818 21.3545V15.4636Z" fill="white" fill-opacity="0.3"/>
<path d="M44.1818 30.1909C44.1818 29.7842 44.5115 29.4545 44.9182 29.4545H50.8091C51.2158 29.4545 51.5455 29.7842 51.5455 30.1909V36.0818C51.5455 36.4885 51.2158 36.8182 50.8091 36.8182H44.9182C44.5115 36.8182 44.1818 36.4885 44.1818 36.0818V30.1909Z" fill="white" fill-opacity="0.3"/>
<path d="M44.1818 44.9182C44.1818 44.5115 44.5115 44.1818 44.9182 44.1818H50.8091C51.2158 44.1818 51.5455 44.5115 51.5455 44.9182V50.8091C51.5455 51.2158 51.2158 51.5455 50.8091 51.5455H44.9182C44.5115 51.5455 44.1818 51.2158 44.1818 50.8091V44.9182Z" fill="white" fill-opacity="0.3"/>
<path d="M44.1818 59.6455C44.1818 59.2388 44.5115 58.9091 44.9182 58.9091H50.8091C51.2158 58.9091 51.5455 59.2388 51.5455 59.6455V65.5364C51.5455 65.943 51.2158 66.2727 50.8091 66.2727H44.9182C44.5115 66.2727 44.1818 65.943 44.1818 65.5364V59.6455Z" fill="white" fill-opacity="0.3"/>
<path d="M44.1818 74.3727C44.1818 73.966 44.5115 73.6364 44.9182 73.6364H50.8091C51.2158 73.6364 51.5455 73.966 51.5455 74.3727V80.2636C51.5455 80.6703 51.2158 81 50.8091 81H44.9182C44.5115 81 44.1818 80.6703 44.1818 80.2636V74.3727Z" fill="white" fill-opacity="0.3"/>
<path d="M58.9091 0.736364C58.9091 0.329681 59.2388 0 59.6455 0H65.5364C65.943 0 66.2727 0.329681 66.2727 0.736364V6.62727C66.2727 7.03396 65.943 7.36364 65.5364 7.36364H59.6455C59.2388 7.36364 58.9091 7.03396 58.9091 6.62727V0.736364Z" fill="white" fill-opacity="0.3"/>
<path d="M58.9091 15.4636C58.9091 15.057 59.2388 14.7273 59.6455 14.7273H65.5364C65.943 14.7273 66.2727 15.057 66.2727 15.4636V21.3545C66.2727 21.7612 65.943 22.0909 65.5364 22.0909H59.6455C59.2388 22.0909 58.9091 21.7612 58.9091 21.3545V15.4636Z" fill="white" fill-opacity="0.3"/>
<path d="M58.9091 30.1909C58.9091 29.7842 59.2388 29.4545 59.6455 29.4545H65.5364C65.943 29.4545 66.2727 29.7842 66.2727 30.1909V36.0818C66.2727 36.4885 65.943 36.8182 65.5364 36.8182H59.6455C59.2388 36.8182 58.9091 36.4885 58.9091 36.0818V30.1909Z" fill="white" fill-opacity="0.3"/>
<path d="M58.9091 44.9182C58.9091 44.5115 59.2388 44.1818 59.6455 44.1818H65.5364C65.943 44.1818 66.2727 44.5115 66.2727 44.9182V50.8091C66.2727 51.2158 65.943 51.5455 65.5364 51.5455H59.6455C59.2388 51.5455 58.9091 51.2158 58.9091 50.8091V44.9182Z" fill="white" fill-opacity="0.3"/>
<path d="M58.9091 59.6455C58.9091 59.2388 59.2388 58.9091 59.6455 58.9091H65.5364C65.943 58.9091 66.2727 59.2388 66.2727 59.6455V65.5364C66.2727 65.943 65.943 66.2727 65.5364 66.2727H59.6455C59.2388 66.2727 58.9091 65.943 58.9091 65.5364V59.6455Z" fill="white" fill-opacity="0.3"/>
<path d="M58.9091 74.3727C58.9091 73.966 59.2388 73.6364 59.6455 73.6364H65.5364C65.943 73.6364 66.2727 73.966 66.2727 74.3727V80.2636C66.2727 80.6703 65.943 81 65.5364 81H59.6455C59.2388 81 58.9091 80.6703 58.9091 80.2636V74.3727Z" fill="white" fill-opacity="0.3"/>
<path d="M73.6364 0.736364C73.6364 0.329681 73.966 0 74.3727 0H80.2636C80.6703 0 81 0.329681 81 0.736364V6.62727C81 7.03396 80.6703 7.36364 80.2636 7.36364H74.3727C73.966 7.36364 73.6364 7.03396 73.6364 6.62727V0.736364Z" fill="white" fill-opacity="0.3"/>
<path d="M73.6364 15.4636C73.6364 15.057 73.966 14.7273 74.3727 14.7273H80.2636C80.6703 14.7273 81 15.057 81 15.4636V21.3545C81 21.7612 80.6703 22.0909 80.2636 22.0909H74.3727C73.966 22.0909 73.6364 21.7612 73.6364 21.3545V15.4636Z" fill="white" fill-opacity="0.3"/>
<path d="M73.6364 30.1909C73.6364 29.7842 73.966 29.4545 74.3727 29.4545H80.2636C80.6703 29.4545 81 29.7842 81 30.1909V36.0818C81 36.4885 80.6703 36.8182 80.2636 36.8182H74.3727C73.966 36.8182 73.6364 36.4885 73.6364 36.0818V30.1909Z" fill="white" fill-opacity="0.3"/>
<path d="M73.6364 44.9182C73.6364 44.5115 73.966 44.1818 74.3727 44.1818H80.2636C80.6703 44.1818 81 44.5115 81 44.9182V50.8091C81 51.2158 80.6703 51.5455 80.2636 51.5455H74.3727C73.966 51.5455 73.6364 51.2158 73.6364 50.8091V44.9182Z" fill="white" fill-opacity="0.3"/>
<path d="M73.6364 59.6455C73.6364 59.2388 73.966 58.9091 74.3727 58.9091H80.2636C80.6703 58.9091 81 59.2388 81 59.6455V65.5364C81 65.943 80.6703 66.2727 80.2636 66.2727H74.3727C73.966 66.2727 73.6364 65.943 73.6364 65.5364V59.6455Z" fill="white" fill-opacity="0.3"/>
<path d="M73.6364 74.3727C73.6364 73.966 73.966 73.6364 74.3727 73.6364H80.2636C80.6703 73.6364 81 73.966 81 74.3727V80.2636C81 80.6703 80.6703 81 80.2636 81H74.3727C73.966 81 73.6364 80.6703 73.6364 80.2636V74.3727Z" fill="white" fill-opacity="0.3"/>
</svg>
